<?xml version="1.0" standalone="no"?><!DOCTYPE svg PUBLIC "-//W3C//DTD SVG 1.1//EN"
  "http://www.w3.org/Graphics/SVG/1.1/DTD/svg11.dtd">
<svg t="1581436253041" class="icon" viewBox="0 0 1024 1024" version="1.1" xmlns="http://www.w3.org/2000/svg" p-id="3976"
     xmlns:xlink="http://www.w3.org/1999/xlink" width="200" height="200">
  <defs>
    <style type="text/css"></style>
  </defs>
  <path
    d="M512 546.981366c-152.645963 0-273.490683-120.84472-273.490683-273.490683S359.354037 0 512 0s273.490683 120.84472 273.490683 273.490683S664.645963 546.981366 512 546.981366zM512 57.242236C391.15528 57.242236 295.751553 152.645963 295.751553 273.490683S391.15528 489.73913 512 489.73913s216.248447-95.403727 216.248447-216.248447S632.84472 57.242236 512 57.242236z"
    fill="#4E8CEE" p-id="3977"></path>
  <path
    d="M512 527.900621c-209.888199 0-381.614907 171.726708-381.614907 381.614907v6.360248s63.602484 69.962733 419.776398 69.962733c235.329193 0 343.453416-76.322981 343.453416-76.322981 0-209.888199-171.726708-381.614907-381.614907-381.614907z"
    fill="#BAD4FF" p-id="3978"></path>
  <path
    d="M543.801242 1017.639752c-349.813665 0-426.136646-69.962733-432.496894-76.322982-6.360248-6.360248-6.360248-12.720497-6.360249-19.080745v-6.360249c0-228.968944 184.447205-413.416149 413.416149-413.416149s413.416149 184.447205 413.41615 413.416149c0 6.360248-6.360248 19.080745-12.720497 25.440994-6.360248 0-114.484472 82.68323-356.173913 82.68323-6.360248-6.360248-19.080745-6.360248-19.080746-6.360248z m-381.614907-114.484472c25.440994 12.720497 120.84472 57.242236 381.614907 57.242236h12.720497c178.086957 0 279.850932-44.521739 311.652174-63.602485-12.720497-190.807453-165.36646-337.093168-356.173913-337.093168-190.807453 0-349.813665 152.645963-349.813665 343.453417z"
    fill="#4E8CEE" p-id="3979"></path>
</svg>
